# Blender v2.90.1 OBJ File: 'bani_submarine.blend'
# www.blender.org
# mtllib bani-sub-periscope.mtl
o periscope_Cylinder.006
v 0.044981 1.617911 0.552843
v -0.000000 1.617911 0.540687
v 0.091104 1.617911 0.625493
v 0.044981 1.617911 0.698143
v -0.000000 1.617911 0.710299
v -0.044981 1.617911 0.698143
v -0.091104 1.617911 0.625493
v -0.044981 1.617911 0.552843
v 0.044980 2.475615 0.552842
v -0.000000 2.475615 0.540686
v 0.091103 2.475615 0.625492
v 0.044980 2.475615 0.698142
v -0.000000 2.475615 0.710298
v -0.044981 2.475615 0.698142
v -0.091104 2.475615 0.625492
v -0.044981 2.475614 0.552842
v -0.091104 2.383700 0.625492
v -0.091104 2.287694 0.625492
v -0.044981 2.287694 0.552842
v -0.044981 2.383699 0.552842
v -0.000000 2.383700 0.710298
v -0.000000 2.287694 0.710299
v -0.044981 2.287694 0.698143
v -0.044981 2.383700 0.698142
v 0.091103 2.383700 0.625492
v 0.091103 2.287694 0.625492
v 0.044980 2.287694 0.698143
v 0.044980 2.383700 0.698142
v -0.000000 2.407014 0.540686
v -0.000000 2.264380 0.540686
v 0.044980 2.287694 0.552842
v 0.044980 2.383700 0.552842
v 0.053136 2.279612 0.397476
v 0.053136 2.391782 0.397476
v -0.053136 2.279611 0.397476
v -0.053137 2.391782 0.397476
v -0.000000 2.418596 0.397476
v -0.000000 2.252798 0.397476
v 0.058303 2.335697 0.552842
v 0.091103 2.335697 0.625492
v 0.044980 2.335697 0.698142
v -0.000000 2.335697 0.710298
v -0.044981 2.335697 0.698142
v -0.091104 2.335697 0.625492
v -0.058304 2.335696 0.552842
v 0.081798 2.335697 0.397476
v -0.081798 2.335696 0.397476
v -0.000000 2.264996 0.514181
v 0.044980 2.287694 0.526337
v -0.044981 2.287694 0.526337
v -0.000000 2.406398 0.514181
v -0.044981 2.383699 0.526337
v 0.044980 2.383700 0.526337
v -0.069512 2.335696 0.526337
v 0.069512 2.335697 0.526337
v -0.000000 2.245511 0.473654
v -0.057378 2.274463 0.475830
v -0.000000 2.425883 0.473654
v -0.088670 2.335696 0.475830
v 0.088669 2.335697 0.475830
v 0.057377 2.274464 0.475830
v -0.057378 2.396929 0.475830
v 0.057377 2.396930 0.475830
v -0.000000 2.222162 0.473771
v -0.000000 2.213365 0.397476
v 0.119509 2.335697 0.397476
v 0.077566 2.419304 0.397476
v -0.119509 2.335696 0.397476
v -0.077567 2.419304 0.397476
v -0.000000 2.458029 0.397476
v -0.077566 2.252089 0.397476
v 0.077566 2.252089 0.397476
v -0.072009 2.258121 0.475791
v -0.000000 2.449233 0.473771
v -0.110916 2.335696 0.475791
v 0.110915 2.335697 0.475791
v 0.072009 2.258122 0.475791
v -0.072010 2.413271 0.475791
v 0.072009 2.413272 0.475791
v 0.088669 2.335697 0.397476
v 0.057377 2.396930 0.397476
v -0.088670 2.335696 0.397476
v -0.057378 2.396929 0.397476
v -0.000000 2.425883 0.397476
v -0.000000 2.245511 0.397476
v -0.057378 2.274463 0.397476
v 0.057377 2.274464 0.397476
v -0.000000 2.335697 0.445301
v -0.000000 2.264561 0.448969
v -0.000000 2.406832 0.448969
v 0.070190 2.335697 0.448969
v -0.070191 2.335696 0.448969
v 0.045596 2.383823 0.448969
v -0.045596 2.383823 0.448969
v -0.045596 2.287570 0.448969
v 0.045596 2.287570 0.448969
v -0.044981 1.706304 0.552843
v -0.091104 1.706304 0.625493
v -0.044981 1.706304 0.698143
v -0.000000 1.703227 0.540687
v -0.000000 1.706304 0.710299
v 0.044981 1.706304 0.698143
v 0.091104 1.706304 0.625493
v 0.044980 1.706304 0.552843
vt 0.218772 0.172694
vt 0.186750 0.250000
vt 0.186750 0.250000
vt 0.218772 0.172694
vt 0.281228 0.172694
vt 0.250000 0.159758
vt 0.250000 0.159758
vt 0.281228 0.172694
vt 0.250000 0.159758
vt 0.281228 0.172694
vt 0.313250 0.250000
vt 0.281228 0.327306
vt 0.250000 0.340242
vt 0.218772 0.327306
vt 0.186750 0.250000
vt 0.218772 0.172694
vt 0.313250 0.250000
vt 0.313250 0.250000
vt 0.281228 0.327306
vt 0.281228 0.327306
vt 0.250000 0.340242
vt 0.250000 0.340242
vt 0.250000 0.159758
vt 0.281228 0.172694
vt 0.218772 0.327306
vt 0.218772 0.327306
vt 0.281228 0.327306
vt 0.250000 0.340242
vt 0.313250 0.250000
vt 0.218772 0.327306
vt 0.218772 0.172694
vt 0.186750 0.250000
vt 0.313250 0.250000
vt 0.281228 0.327306
vt 0.281228 0.327306
vt 0.313250 0.250000
vt 0.281228 0.172694
vt 0.281228 0.172694
vt 0.250000 0.159758
vt 0.250000 0.159758
vt 0.186750 0.250000
vt 0.218772 0.172694
vt 0.218772 0.172694
vt 0.186750 0.250000
vt 0.218772 0.327306
vt 0.250000 0.340242
vt 0.250000 0.340242
vt 0.218772 0.327306
vt 0.281228 0.327306
vt 0.281228 0.327306
vt 0.218772 0.327306
vt 0.218772 0.327306
vt 0.221192 0.328309
vt 0.222279 0.328759
vt 0.222279 0.328759
vt 0.221192 0.328309
vt 0.250000 0.340242
vt 0.222279 0.328759
vt 0.222279 0.328759
vt 0.250000 0.340242
vt 0.218772 0.327306
vt 0.218772 0.327306
vt 0.250000 0.340242
vt 0.250000 0.340242
vt 0.281228 0.327306
vt 0.281228 0.327306
vt 0.281228 0.327306
vt 0.281228 0.327306
vt 0.218772 0.327306
vt 0.218772 0.327306
vt 0.277721 0.328759
vt 0.277721 0.328759
vt 0.250000 0.340242
vt 0.278808 0.328309
vt 0.277721 0.328759
vt 0.281228 0.327306
vt 0.281228 0.327306
vt 0.218772 0.327306
vt 0.218772 0.327306
vt 0.250000 0.340242
vt 0.250000 0.340242
vt 0.250000 0.340242
vt 0.218772 0.327306
vt 0.281228 0.327306
vt 0.250000 0.340242
vt 0.278808 0.328309
vt 0.250000 0.340242
vt 0.277721 0.328759
vt 0.218772 0.327306
vt 0.218772 0.327306
vt 0.281228 0.327306
vt 0.250000 0.340242
vt 0.281228 0.327306
vt 0.281228 0.327306
vt 0.218772 0.327306
vt 0.218772 0.327306
vt 0.281228 0.327306
vt 0.250000 0.340242
vt 0.218772 0.327306
vt 0.218772 0.327306
vt 0.250000 0.340242
vt 0.281228 0.327306
vt 0.281228 0.327306
vt 0.250000 0.340242
vn -0.8442 0.0000 0.5360
vn 0.2609 0.0000 0.9654
vn -0.0000 1.0000 -0.0000
vn 0.8442 -0.0000 -0.5360
vn 0.2609 -0.0000 -0.9654
vn -0.8442 -0.0000 -0.5360
vn -0.2609 0.0000 0.9654
vn 0.8442 0.0000 0.5360
vn -0.2609 -0.0000 -0.9654
vn 0.8723 -0.1210 -0.4738
vn -0.3801 -0.8527 0.3582
vn 0.3801 -0.8527 0.3582
vn -0.8723 -0.1210 -0.4738
vn 0.8730 -0.4462 -0.1968
vn 0.4414 0.8748 -0.1998
vn -0.3802 0.8527 0.3582
vn 0.8436 -0.4311 0.3200
vn 0.3802 0.8527 0.3582
vn -0.8436 0.4311 0.3200
vn -0.8436 -0.4311 0.3200
vn 0.8436 0.4311 0.3200
vn -0.4414 0.8748 -0.1998
vn 0.8730 0.4462 -0.1968
vn -0.8723 0.1210 -0.4738
vn 0.8723 0.1210 -0.4738
vn 0.9128 0.3599 0.1930
vn -0.9128 -0.3599 0.1930
vn -0.9128 0.3599 0.1930
vn 0.4575 0.8891 -0.0103
vn 0.9128 -0.3599 0.1930
vn -0.4576 0.8891 -0.0103
vn 0.4575 -0.8891 -0.0103
vn -0.4575 -0.8891 -0.0103
vn 0.0000 0.0000 -1.0000
vn -0.0393 -0.0388 -0.9985
vn 0.0393 -0.0388 -0.9985
vn 0.0393 0.0388 -0.9985
vn -0.0393 0.0388 -0.9985
vn -0.8730 0.4462 -0.1968
vn -0.4414 -0.8748 -0.1998
vn 0.4414 -0.8748 -0.1998
vn -0.8730 -0.4462 -0.1968
vn -0.0282 0.0084 0.9996
vn -0.0017 0.0009 1.0000
vn -0.0017 -0.0009 1.0000
vn 0.8896 0.4462 0.0976
vn -0.8896 -0.4462 0.0976
vn -0.8896 0.4462 0.0976
vn 0.4433 0.8906 0.1014
vn 0.8896 -0.4462 0.0976
vn -0.4433 0.8906 0.1014
vn 0.4433 -0.8906 0.1014
vn -0.4433 -0.8906 0.1014
vn 0.0017 -0.0009 1.0000
vn 0.0282 0.0084 0.9996
vn -0.0282 -0.0084 0.9996
vn 0.0282 -0.0084 0.9996
vn 0.0017 0.0009 1.0000
usemtl Material.003
s off
f 99/1/1 98/2/1 7/3/1 6/4/1
f 102/5/2 101/6/2 5/7/2 4/8/2
f 13/9/3 12/10/3 11/11/3 9/12/3 10/13/3 16/14/3 15/15/3 14/16/3
f 103/17/4 3/18/4 1/19/4 104/20/4
f 100/21/5 104/20/5 1/19/5 2/22/5
f 12/10/2 13/9/2 21/23/2 28/24/2
f 97/25/6 8/26/6 7/3/6 98/2/6
f 101/6/7 99/1/7 6/4/7 5/7/7
f 102/5/8 4/8/8 3/18/8 103/17/8
f 9/12/5 32/27/5 29/28/5 10/13/5
f 11/11/4 25/29/4 32/27/4 9/12/4
f 100/21/9 2/22/9 8/26/9 97/25/9
f 16/14/9 10/13/9 29/28/9 20/30/9
f 12/10/8 28/24/8 25/29/8 11/11/8
f 13/9/7 14/16/7 24/31/7 21/23/7
f 16/14/6 20/30/6 17/32/6 15/15/6
f 26/33/10 31/34/10 39/35/10 40/36/10
f 27/37/2 41/38/2 42/39/2 22/40/2
f 18/41/1 23/42/1 43/43/1 44/44/1
f 57/45/11 56/46/11 48/47/11 50/48/11
f 61/49/12 49/50/12 48/47/12 56/46/12
f 27/37/8 26/33/8 40/36/8 41/38/8
f 23/42/7 22/40/7 42/39/7 43/43/7
f 18/41/13 44/44/13 45/51/13 19/52/13
f 15/15/1 17/32/1 24/31/1 14/16/1
f 47/53/14 36/54/14 94/55/14 92/56/14
f 38/57/15 35/58/15 95/59/15 89/60/15
f 62/61/16 52/62/16 51/63/16 58/64/16
f 60/65/17 55/66/17 49/50/17 61/49/17
f 63/67/18 58/64/18 51/63/18 53/68/18
f 62/61/19 59/69/19 54/70/19 52/62/19
f 59/69/20 57/45/20 50/48/20 54/70/20
f 63/67/21 53/68/21 55/66/21 60/65/21
f 33/71/22 38/57/22 89/60/22 96/72/22
f 35/58/23 47/53/23 92/56/23 95/59/23
f 45/51/24 44/44/24 17/32/24 20/30/24
f 43/43/7 42/39/7 21/23/7 24/31/7
f 41/38/8 40/36/8 25/29/8 28/24/8
f 44/44/1 43/43/1 24/31/1 17/32/1
f 41/38/2 28/24/2 21/23/2 42/39/2
f 39/35/25 32/27/25 25/29/25 40/36/25
f 53/68/26 32/27/26 39/35/26 55/66/26
f 50/48/27 19/52/27 45/51/27 54/70/27
f 52/62/28 54/70/28 45/51/28 20/30/28
f 53/68/29 51/63/29 29/28/29 32/27/29
f 49/50/30 55/66/30 39/35/30 31/34/30
f 52/62/31 20/30/31 29/28/31 51/63/31
f 49/50/32 31/34/32 30/73/32 48/47/32
f 50/48/33 48/47/33 30/73/33 19/52/33
f 46/74/34 34/75/34 81/76/34 80/77/34
f 36/54/34 47/53/34 82/78/34 83/79/34
f 37/80/34 36/54/34 83/79/34 84/81/34
f 35/58/34 38/57/34 85/82/34 86/83/34
f 34/75/34 37/80/34 84/81/34 81/76/34
f 38/57/34 33/71/34 87/84/34 85/82/34
f 33/71/34 46/74/34 80/77/34 87/84/34
f 47/53/34 35/58/34 86/83/34 82/78/34
f 95/59/35 92/56/35 88/85/35 89/60/35
f 96/72/36 89/60/36 88/85/36 91/86/36
f 88/85/37 90/87/37 93/88/37 91/86/37
f 88/85/38 92/56/38 94/55/38 90/87/38
f 46/74/39 33/71/39 96/72/39 91/86/39
f 37/80/40 34/75/40 93/88/40 90/87/40
f 36/54/41 37/80/41 90/87/41 94/55/41
f 34/75/42 46/74/42 91/86/42 93/88/42
f 30/73/9 100/21/9 97/25/9 19/52/9
f 27/37/8 102/5/8 103/17/8 26/33/8
f 22/40/7 23/42/7 99/1/7 101/6/7
f 19/52/6 97/25/6 98/2/6 18/41/6
f 30/73/5 31/34/5 104/20/5 100/21/5
f 26/33/4 103/17/4 104/20/4 31/34/4
f 27/37/2 22/40/2 101/6/2 102/5/2
f 23/42/1 18/41/1 98/2/1 99/1/1
usemtl Material.004
f 83/79/34 82/78/34 68/89/34 69/90/34
f 58/64/43 63/67/43 79/91/43 74/92/43
f 80/77/34 81/76/34 67/93/34 66/94/34
f 59/69/44 62/61/44 78/95/44 75/96/44
f 85/82/34 87/84/34 72/97/34 65/98/34
f 57/45/45 59/69/45 75/96/45 73/99/45
f 82/78/34 86/83/34 71/100/34 68/89/34
f 81/76/34 84/81/34 70/101/34 67/93/34
f 67/93/46 79/91/46 76/102/46 66/94/46
f 68/89/47 71/100/47 73/99/47 75/96/47
f 69/90/48 68/89/48 75/96/48 78/95/48
f 67/93/49 70/101/49 74/92/49 79/91/49
f 66/94/50 76/102/50 77/103/50 72/97/50
f 69/90/51 78/95/51 74/92/51 70/101/51
f 72/97/52 77/103/52 64/104/52 65/98/52
f 71/100/53 65/98/53 64/104/53 73/99/53
f 60/65/54 61/49/54 77/103/54 76/102/54
f 84/81/34 83/79/34 69/90/34 70/101/34
f 62/61/55 58/64/55 74/92/55 78/95/55
f 61/49/56 56/46/56 64/104/56 77/103/56
f 86/83/34 85/82/34 65/98/34 71/100/34
f 56/46/57 57/45/57 73/99/57 64/104/57
f 87/84/34 80/77/34 66/94/34 72/97/34
f 63/67/58 60/65/58 76/102/58 79/91/58
