# Blender v2.90.1 OBJ File: 'bani_submarine.blend'
# www.blender.org
# mtllib bani-sub-prop.mtl
o prop_Cylinder.004
v 0.008162 0.019704 3.086501
v 0.008162 0.019704 3.092036
v 0.019704 0.008161 3.086501
v 0.019704 0.008161 3.092036
v 0.019704 -0.008162 3.086501
v 0.019704 -0.008162 3.092036
v 0.008162 -0.019704 3.086501
v 0.008162 -0.019704 3.092036
v -0.008162 -0.019704 3.086501
v -0.008162 -0.019704 3.092036
v -0.019704 -0.008162 3.086501
v -0.019704 -0.008162 3.092036
v -0.019704 0.008161 3.086501
v -0.019704 0.008161 3.092036
v -0.008162 0.019704 3.086501
v -0.008162 0.019704 3.092036
v 0.157520 0.380286 3.048300
v 0.380286 0.157519 3.048300
v 0.380286 0.157519 3.130237
v 0.157520 0.380286 3.130237
v 0.380286 -0.157520 3.048300
v 0.380286 -0.157520 3.130237
v 0.157520 -0.380287 3.048300
v 0.157520 -0.380287 3.130237
v -0.157520 -0.380287 3.048300
v -0.157520 -0.380287 3.130237
v -0.380286 -0.157520 3.048300
v -0.380286 -0.157520 3.130237
v -0.380286 0.157519 3.048300
v -0.380286 0.157519 3.130237
v -0.157520 0.380286 3.048300
v -0.157520 0.380286 3.130237
vt 1.000000 0.500000
vt 1.000000 1.000000
vt 0.875000 1.000000
vt 0.875000 0.500000
vt 0.750000 0.500000
vt 0.750000 1.000000
vt 0.625000 1.000000
vt 0.625000 0.500000
vt 0.500000 0.500000
vt 0.500000 1.000000
vt 0.375000 1.000000
vt 0.375000 0.500000
vt 0.250000 0.500000
vt 0.250000 1.000000
vt 0.125000 1.000000
vt 0.125000 0.500000
vt 0.880184 0.380184
vt 0.750000 0.434108
vt 0.750000 0.490000
vt 0.919706 0.419706
vt 0.250000 0.434108
vt 0.380184 0.380184
vt 0.419706 0.419706
vt 0.250000 0.490000
vt 0.580294 0.080294
vt 0.080294 0.080294
vt 0.119816 0.119816
vt 0.619816 0.119816
vt 0.880184 0.119816
vt 0.934108 0.250000
vt 0.990000 0.250000
vt 0.919706 0.080294
vt 0.434108 0.250000
vt 0.380184 0.119816
vt 0.419706 0.080294
vt 0.490000 0.250000
vt 0.750000 0.010000
vt 0.750000 0.065892
vt 0.250000 0.065892
vt 0.250000 0.010000
vt 0.619816 0.380184
vt 0.565892 0.250000
vt 0.510000 0.250000
vt 0.580294 0.419706
vt 0.065892 0.250000
vt 0.119816 0.380184
vt 0.080294 0.419706
vt 0.010000 0.250000
vt 0.000000 0.000000
vt 0.000000 0.000000
vt 0.000000 0.000000
vt 0.000000 0.000000
vt 0.000000 0.000000
vt 0.000000 0.000000
vt 0.000000 0.000000
vt 0.000000 0.000000
vt 0.000000 0.000000
vt 0.000000 0.000000
vt 0.000000 0.000000
vt 0.000000 0.000000
vt 0.000000 0.000000
vt 0.000000 0.000000
vt 0.000000 0.000000
vt 0.000000 0.000000
vn 0.7071 0.7071 0.0000
vn 0.7071 -0.7071 -0.0000
vn -0.7071 -0.7071 -0.0000
vn -0.7071 0.7071 0.0000
vn -0.0745 -0.0745 -0.9944
vn -0.0745 -0.0745 0.9944
vn -0.3827 0.9239 0.0000
vn -0.0745 0.0745 -0.9944
vn -0.0745 0.0745 0.9944
vn 0.9239 -0.3827 0.0000
vn -0.9239 -0.3827 -0.0000
vn 0.0745 0.0745 -0.9944
vn 0.0745 0.0745 0.9944
vn 0.3827 0.9239 0.0000
vn 0.3827 -0.9239 -0.0000
vn 0.0745 -0.0745 -0.9944
vn 0.0745 -0.0745 0.9944
vn -0.9239 0.3827 -0.0000
vn 0.9239 0.3827 0.0000
vn 0.0000 0.0000 1.0000
vn -0.3827 -0.9239 -0.0000
vn 1.0000 0.0000 0.0000
vn 0.0000 1.0000 0.0000
vn -1.0000 0.0000 0.0000
usemtl Material.004
s off
f 17/1/1 20/2/1 19/3/1 18/4/1
f 21/5/2 22/6/2 24/7/2 23/8/2
f 25/9/3 26/10/3 28/11/3 27/12/3
f 29/13/4 30/14/4 32/15/4 31/16/4
f 3/17/5 1/18/5 17/19/5 18/20/5
f 2/21/6 4/22/6 19/23/6 20/24/6
f 27/25/7 28/26/7 12/27/7 11/28/7
f 7/29/8 5/30/8 21/31/8 23/32/8
f 6/33/9 8/34/9 24/35/9 22/36/9
f 25/37/10 9/38/10 10/39/10 26/40/10
f 23/32/11 24/35/11 8/34/11 7/29/11
f 11/28/12 9/38/12 25/37/12 27/25/12
f 10/39/13 12/27/13 28/26/13 26/40/13
f 21/31/14 5/30/14 6/33/14 22/36/14
f 18/20/15 19/23/15 4/22/15 3/17/15
f 15/41/16 13/42/16 29/43/16 31/44/16
f 14/45/17 16/46/17 32/47/17 30/48/17
f 20/24/18 17/19/18 1/18/18 2/21/18
f 31/44/19 32/47/19 16/46/19 15/41/19
f 4/49/20 2/50/20 16/46/20 14/51/20 12/27/20 10/52/20 8/34/20 6/53/20
f 29/43/21 13/42/21 14/45/21 30/48/21
f 9/38/20 7/29/20 5/54/20 3/17/20 1/55/20 15/41/20 13/56/20 11/28/20
f 12/57/22 11/58/22 13/56/22 14/51/22
f 2/50/23 1/55/23 15/59/23 16/60/23
f 4/49/24 3/61/24 5/54/24 6/53/24
f 8/62/23 7/63/23 9/64/23 10/52/23
